<mxfile host="drawio-plugin" modified="2024-01-16T01:30:47.979Z" agent="5.0 (Windows NT 10.0; Win64; x64) AppleWebKit/537.36 (KHTML, like Gecko) Chrome/111.0.0.0 Safari/537.36" etag="5qAB1BPqLvZtl4BS-wPE" version="20.5.3" type="embed"><diagram id="BBrjRZ67x9Kq6uzDSH5_" name="Page-1"><mxGraphModel dx="541" dy="1453" grid="1" gridSize="10" guides="1" tooltips="1" connect="1" arrows="1" fold="1" page="1" pageScale="1" pageWidth="850" pageHeight="1100" math="0" shadow="0"><root><mxCell id="0"/><mxCell id="1" parent="0"/><mxCell id="3" value="" style="rounded=0;whiteSpace=wrap;html=1;" parent="1" vertex="1"><mxGeometry x="50" y="170" width="780" height="600" as="geometry"/></mxCell><mxCell id="4" value="" style="rounded=0;whiteSpace=wrap;html=1;" parent="1" vertex="1"><mxGeometry x="50" y="170" width="780" height="60" as="geometry"/></mxCell><mxCell id="5" value="状态" style="rounded=0;whiteSpace=wrap;html=1;" parent="1" vertex="1"><mxGeometry x="50" y="170" width="120" height="60" as="geometry"/></mxCell><mxCell id="6" value="" style="rounded=0;whiteSpace=wrap;html=1;" parent="1" vertex="1"><mxGeometry x="50" y="230" width="120" height="540" as="geometry"/></mxCell><mxCell id="8" value="&lt;div style=&quot;&quot;&gt;&lt;span style=&quot;background-color: initial;&quot;&gt;while 1:&lt;/span&gt;&lt;/div&gt;&lt;div style=&quot;&quot;&gt;&lt;span style=&quot;background-color: initial;&quot;&gt;&lt;span style=&quot;white-space: pre;&quot;&gt;&lt;span style=&quot;white-space: pre;&quot;&gt;&#9;&lt;/span&gt;task = &lt;/span&gt;get_next_task()&lt;/span&gt;&lt;/div&gt;" style="rounded=0;whiteSpace=wrap;html=1;align=left;" parent="1" vertex="1"><mxGeometry x="10" y="-1080" width="210" height="70" as="geometry"/></mxCell><mxCell id="9" value="" style="endArrow=classic;html=1;rounded=0;exitX=1;exitY=0.5;exitDx=0;exitDy=0;" parent="1" source="8" target="10" edge="1"><mxGeometry width="50" height="50" relative="1" as="geometry"><mxPoint x="400" y="-890" as="sourcePoint"/><mxPoint x="420" y="-1030" as="targetPoint"/></mxGeometry></mxCell><mxCell id="10" value="tasks 类，包含&lt;br&gt;padding = []" style="rounded=0;whiteSpace=wrap;html=1;" parent="1" vertex="1"><mxGeometry x="260" y="-1080" width="120" height="400" as="geometry"/></mxCell><mxCell id="11" value="" style="endArrow=classic;html=1;rounded=0;" parent="1" source="10" target="15" edge="1"><mxGeometry width="50" height="50" relative="1" as="geometry"><mxPoint x="500" y="-750" as="sourcePoint"/><mxPoint x="460" y="-960" as="targetPoint"/></mxGeometry></mxCell><mxCell id="12" value="根据实例渲染左侧队伍选项&lt;br&gt;web&lt;br&gt;渲染web布局" style="rounded=0;whiteSpace=wrap;html=1;" parent="1" vertex="1"><mxGeometry x="250" y="-540" width="120" height="400" as="geometry"/></mxCell><mxCell id="15" value="根据配置创建对应的主城列表&lt;br&gt;主城队列实例&lt;br&gt;" style="rounded=0;whiteSpace=wrap;html=1;" parent="1" vertex="1"><mxGeometry x="680" y="-900" width="120" height="400" as="geometry"/></mxCell><mxCell id="18" value="" style="endArrow=classic;html=1;rounded=0;entryX=1.008;entryY=0.385;entryDx=0;entryDy=0;entryPerimeter=0;exitX=-0.008;exitY=0.583;exitDx=0;exitDy=0;exitPerimeter=0;" parent="1" source="15" target="12" edge="1"><mxGeometry width="50" height="50" relative="1" as="geometry"><mxPoint x="500" y="-580" as="sourcePoint"/><mxPoint x="540" y="-620" as="targetPoint"/></mxGeometry></mxCell><mxCell id="19" value="" style="endArrow=classic;html=1;rounded=0;exitX=0.592;exitY=-0.005;exitDx=0;exitDy=0;exitPerimeter=0;" parent="1" target="15" edge="1"><mxGeometry width="50" height="50" relative="1" as="geometry"><mxPoint x="323.03999999999996" y="-542" as="sourcePoint"/><mxPoint x="322" y="-680" as="targetPoint"/></mxGeometry></mxCell><mxCell id="20" value="事件触发，回归实例属性" style="edgeLabel;html=1;align=center;verticalAlign=middle;resizable=0;points=[];" parent="19" vertex="1" connectable="0"><mxGeometry x="0.1596" y="1" relative="1" as="geometry"><mxPoint x="-101" y="12" as="offset"/></mxGeometry></mxCell><mxCell id="21" value="" style="endArrow=classic;html=1;rounded=0;entryX=1;entryY=0.725;entryDx=0;entryDy=0;entryPerimeter=0;exitX=-0.033;exitY=0.453;exitDx=0;exitDy=0;exitPerimeter=0;" parent="1" source="15" target="10" edge="1"><mxGeometry width="50" height="50" relative="1" as="geometry"><mxPoint x="400" y="-600" as="sourcePoint"/><mxPoint x="450" y="-650" as="targetPoint"/></mxGeometry></mxCell><mxCell id="22" value="发送实例还有对应的属性方法" style="edgeLabel;html=1;align=center;verticalAlign=middle;resizable=0;points=[];" parent="21" vertex="1" connectable="0"><mxGeometry x="0.1556" relative="1" as="geometry"><mxPoint x="-15" y="10" as="offset"/></mxGeometry></mxCell><mxCell id="24" value="config.yaml&amp;nbsp; 文件" style="rounded=0;whiteSpace=wrap;html=1;" vertex="1" parent="1"><mxGeometry x="990" y="-1050" width="240" height="80" as="geometry"/></mxCell><mxCell id="25" value="globalconfig 对象" style="rounded=0;whiteSpace=wrap;html=1;" vertex="1" parent="1"><mxGeometry x="990" y="-890" width="250" height="60" as="geometry"/></mxCell><mxCell id="27" value="" style="endArrow=classic;html=1;rounded=0;exitX=0.458;exitY=1.038;exitDx=0;exitDy=0;exitPerimeter=0;entryX=0.5;entryY=0;entryDx=0;entryDy=0;" edge="1" parent="1" source="24" target="25"><mxGeometry width="50" height="50" relative="1" as="geometry"><mxPoint x="1100" y="-880" as="sourcePoint"/><mxPoint x="1150" y="-930" as="targetPoint"/></mxGeometry></mxCell><mxCell id="28" value="" style="endArrow=classic;html=1;rounded=0;exitX=0.5;exitY=1;exitDx=0;exitDy=0;entryX=0.5;entryY=0;entryDx=0;entryDy=0;" edge="1" parent="1" source="25" target="29"><mxGeometry width="50" height="50" relative="1" as="geometry"><mxPoint x="1100" y="-670" as="sourcePoint"/><mxPoint x="1050" y="-720" as="targetPoint"/></mxGeometry></mxCell><mxCell id="29" value="class.devices" style="rounded=0;whiteSpace=wrap;html=1;" vertex="1" parent="1"><mxGeometry x="990" y="-720" width="120" height="60" as="geometry"/></mxCell><mxCell id="31" value="web 修改 globalconfig 中的属性" style="rounded=0;whiteSpace=wrap;html=1;" vertex="1" parent="1"><mxGeometry x="1390" y="-890" width="120" height="60" as="geometry"/></mxCell><mxCell id="32" value="" style="endArrow=classic;html=1;rounded=0;entryX=1;entryY=0.5;entryDx=0;entryDy=0;exitX=0;exitY=0.5;exitDx=0;exitDy=0;" edge="1" parent="1" source="31" target="25"><mxGeometry width="50" height="50" relative="1" as="geometry"><mxPoint x="1100" y="-680" as="sourcePoint"/><mxPoint x="1150" y="-730" as="targetPoint"/></mxGeometry></mxCell><mxCell id="33" value="" style="endArrow=classic;html=1;rounded=0;entryX=0.68;entryY=0.991;entryDx=0;entryDy=0;entryPerimeter=0;exitX=0.838;exitY=0.001;exitDx=0;exitDy=0;exitPerimeter=0;" edge="1" parent="1" source="29" target="25"><mxGeometry width="50" height="50" relative="1" as="geometry"><mxPoint x="1100" y="-680" as="sourcePoint"/><mxPoint x="1150" y="-730" as="targetPoint"/></mxGeometry></mxCell><mxCell id="34" value="下一次调用更新&lt;br&gt;" style="edgeLabel;html=1;align=center;verticalAlign=middle;resizable=0;points=[];" vertex="1" connectable="0" parent="33"><mxGeometry x="-0.0405" y="-1" relative="1" as="geometry"><mxPoint x="-25" as="offset"/></mxGeometry></mxCell><mxCell id="35" value="" style="endArrow=classic;html=1;rounded=0;entryX=1;entryY=0.75;entryDx=0;entryDy=0;exitX=0.061;exitY=-0.002;exitDx=0;exitDy=0;exitPerimeter=0;" edge="1" parent="1" source="31" target="24"><mxGeometry width="50" height="50" relative="1" as="geometry"><mxPoint x="1280" y="-870" as="sourcePoint"/><mxPoint x="1330" y="-920" as="targetPoint"/></mxGeometry></mxCell><mxCell id="36" value="写入新的配置文件" style="edgeLabel;html=1;align=center;verticalAlign=middle;resizable=0;points=[];" vertex="1" connectable="0" parent="35"><mxGeometry x="-0.0541" y="-2" relative="1" as="geometry"><mxPoint as="offset"/></mxGeometry></mxCell></root></mxGraphModel></diagram></mxfile>